<svg width="265" height="36" viewBox="0 0 265 36" fill="none" xmlns="http://www.w3.org/2000/svg">
<g clip-path="url(#clip0_3_53)">
<path d="M56.8256 24.7393L55.8592 23.9017C56.4632 24.0812 57.0672 24.3205 57.7919 24.4402C58.5167 24.6197 59.3019 24.6795 60.2079 24.6795C61.4158 24.6795 62.4426 24.5 63.409 24.0812C64.3149 23.6624 65.1001 23.0043 65.6437 22.1069C66.1873 21.2094 66.4893 19.8932 66.4893 18.2778C66.4893 16.9017 66.2477 15.765 65.7645 14.8675C65.2813 13.9701 64.6773 13.312 63.8921 12.8932C63.107 12.4744 62.2614 12.2949 61.295 12.2949C60.5703 12.2949 59.8455 12.3547 59.1811 12.5342C58.5167 12.7137 57.9127 12.8932 57.3692 13.1325C56.8256 13.3718 56.3424 13.6111 56.0404 13.8504V10.0812C56.5236 9.66241 57.0672 9.30344 57.7315 8.94447C58.3959 8.58549 59.1811 8.28635 60.0871 8.04703C60.993 7.80771 61.899 7.68806 62.8654 7.68806C64.4961 7.68806 66.0061 8.04703 67.3348 8.82481C68.6636 9.54276 69.7508 10.6795 70.5963 12.2351C71.3815 13.7308 71.8043 15.7051 71.8043 17.9787C71.8043 19.953 71.5023 21.6282 70.8379 23.0641C70.2339 24.5 69.328 25.6368 68.3012 26.5342C67.214 27.4316 66.0061 28.0898 64.6773 28.5684C63.3486 28.9872 61.9594 29.2265 60.5099 29.2265C58.5771 29.2265 56.886 29.047 55.4968 28.6282C54.1077 28.2094 52.8393 27.8504 51.7521 27.4316V1.88464L56.8256 1.16669V24.7393Z" fill="#EC0C31"/>
<path d="M79.7769 17.141V18.8761C79.7769 20.0726 80.0185 21.1496 80.5016 21.9872C80.9848 22.8248 81.7096 23.4231 82.676 23.8419C83.6423 24.2607 84.9107 24.4402 86.3603 24.4402C87.3266 24.4402 88.293 24.3803 89.199 24.2009C90.1049 24.0214 90.9505 23.8419 91.7357 23.5427C92.5209 23.3034 93.1248 23.0043 93.6684 22.7051V27.1325C92.9436 27.6709 91.8565 28.1496 90.4069 28.5684C88.9574 28.9872 87.387 29.1667 85.8167 29.1667C83.5819 29.1667 81.6492 28.7479 80.0185 27.9103C78.3273 27.0726 77.059 25.8761 76.0926 24.2607C75.1866 22.6453 74.7034 20.7308 74.7034 18.3974C74.7034 16.1838 75.1262 14.2692 75.9718 12.6538C76.8174 11.0385 78.0253 9.84188 79.5353 8.94444C81.0452 8.04701 82.8572 7.6282 84.9107 7.6282C87.8098 7.6282 90.1049 8.52564 91.6753 10.2607C93.2456 11.9957 94.0912 14.3889 94.0912 17.5V19.8333H79.5957V16.6026H89.0782C89.0782 15.1667 88.6554 14.0299 87.991 13.1923C87.2662 12.3547 86.1791 11.9359 84.6087 11.9359C83.5819 11.9359 82.7364 12.1752 82.0116 12.594C81.2868 13.0128 80.8036 13.6111 80.4412 14.3889C79.9581 15.1667 79.7769 16.0641 79.7769 17.141Z" fill="#EC0C31"/>
<path d="M97.9567 8.04702H102.728V12.1752L103.03 12.8333V28.8077H97.9567V8.04702ZM107.922 12.5342C107.137 12.5342 106.412 12.6539 105.688 12.8333C104.963 13.0128 104.298 13.2522 103.755 13.4915C103.151 13.7906 102.668 14.0299 102.305 14.2692L102.245 11.0385C102.789 10.5 103.453 9.96155 104.238 9.42309C105.023 8.88463 105.869 8.46583 106.896 8.10685C107.862 7.74788 108.949 7.56839 110.097 7.56839C111.667 7.56839 112.935 7.86753 113.902 8.52565C114.929 9.18377 115.653 10.0214 116.136 11.1581C116.62 12.2949 116.861 13.6111 116.861 15.2265V28.688H111.788V16.7222C111.788 15.8248 111.667 15.1069 111.365 14.4487C111.063 13.8504 110.64 13.3718 110.097 13.0128C109.493 12.7137 108.768 12.5342 107.922 12.5342ZM121.633 12.5342C120.848 12.5342 120.123 12.6539 119.338 12.8333C118.613 13.0128 117.888 13.2522 117.284 13.5513C116.68 13.8504 116.197 14.0898 115.774 14.3889L115.714 11.1581C116.318 10.6197 116.982 10.0812 117.767 9.54275C118.552 9.00429 119.458 8.58548 120.425 8.22651C121.452 7.86753 122.539 7.68805 123.747 7.68805C125.317 7.68805 126.585 7.98719 127.552 8.64531C128.518 9.30343 129.243 10.2009 129.726 11.3376C130.209 12.4744 130.451 13.8504 130.451 15.406V28.7479H125.377V16.7222C125.377 15.8248 125.257 15.1069 124.955 14.4487C124.653 13.8504 124.23 13.3718 123.686 13.0128C123.263 12.7137 122.539 12.5342 121.633 12.5342Z" fill="#F5BB00"/>
<path d="M139.027 35.3291C137.819 35.3291 136.732 35.0897 135.826 34.6709C134.92 34.2521 134.196 33.8333 133.652 33.4145V28.6282C133.954 28.8675 134.316 29.1667 134.799 29.4658C135.283 29.8248 135.826 30.0641 136.491 30.3034C137.155 30.5427 137.88 30.6624 138.725 30.6624C139.45 30.6624 140.115 30.4829 140.658 30.1838C141.202 29.8846 141.685 29.406 141.987 28.8077L142.47 27.8504L133.108 7.98718H138.786L145.309 23.4231L143.436 25.6966L150.382 7.98718H155.999L146.396 29.7051C145.55 31.7393 144.463 33.1154 143.134 34.0128C141.987 34.9103 140.537 35.3291 139.027 35.3291Z" fill="#F5BB00"/>
<path d="M171.582 27.9103C170.978 28.2693 170.253 28.5684 169.347 28.8077C168.441 29.047 167.354 29.2265 166.146 29.2265C164.938 29.2265 163.791 29.047 162.764 28.6282C161.737 28.2094 160.952 27.5513 160.348 26.594C159.744 25.6368 159.442 24.2607 159.442 22.5257V12.4744H156.301V11.218L163.428 4.15814H164.576V8.04703H171.582V12.4744H164.576V21.8675C164.576 22.8846 164.817 23.6624 165.361 24.0214C165.905 24.4402 166.629 24.6197 167.535 24.6197C168.32 24.6197 169.106 24.5 169.891 24.3205C170.616 24.141 171.22 23.9017 171.642 23.7222V27.9103H171.582Z" fill="#EC0C31"/>
<path d="M177.803 5.71369C176.776 5.71369 175.931 5.47437 175.266 4.99574C174.662 4.51711 174.3 3.85899 174.3 3.02138C174.3 2.18377 174.602 1.52565 175.266 1.04702C175.87 0.568387 176.716 0.329071 177.803 0.329071C178.89 0.329071 179.736 0.568387 180.34 1.04702C180.944 1.52565 181.246 2.18377 181.246 3.02138C181.246 3.85899 180.944 4.51711 180.34 4.99574C179.675 5.41454 178.83 5.71369 177.803 5.71369ZM175.206 8.04702H180.279V28.7479H175.206V8.04702Z" fill="#EC0C31"/>
<path d="M202.264 9.42308V14.4487C201.358 13.8504 200.331 13.312 199.184 12.953C198.036 12.594 196.889 12.4145 195.741 12.4145C194.473 12.4145 193.386 12.6538 192.419 13.1325C191.453 13.6111 190.728 14.3291 190.185 15.2265C189.641 16.1239 189.399 17.2009 189.399 18.4573C189.399 19.6538 189.641 20.7308 190.185 21.6282C190.728 22.5256 191.453 23.2436 192.419 23.7222C193.386 24.2009 194.473 24.5 195.681 24.5C196.889 24.5 198.036 24.3205 199.184 23.9615C200.271 23.6026 201.298 23.1239 202.264 22.4658V27.4915C201.419 28.0897 200.392 28.5085 199.244 28.8077C198.097 29.1068 196.828 29.2863 195.5 29.2863C193.386 29.2863 191.453 28.8077 189.762 27.8504C188.071 26.8932 186.742 25.6368 185.715 24.0214C184.749 22.406 184.205 20.5513 184.205 18.5171C184.205 16.3632 184.688 14.5085 185.715 12.8932C186.742 11.2778 188.071 10.0214 189.762 9.12393C191.453 8.2265 193.386 7.74786 195.5 7.74786C196.828 7.74786 198.036 7.86752 199.184 8.16667C200.452 8.40598 201.419 8.82479 202.264 9.42308Z" fill="#EC0C31"/>
<path d="M205.948 1.88464L211.022 1.16669V28.7479H205.948V1.88464ZM209.331 15.406H217.364V20.0727H209.331V15.406ZM212.592 17.6197L220.142 8.04703H226.001L217.968 17.5L226.001 28.8077H220.142L212.592 17.6197Z" fill="#EC0C31"/>
<path d="M233.007 17.141V18.8761C233.007 20.0726 233.248 21.1496 233.732 21.9872C234.215 22.8248 234.94 23.4231 235.906 23.8419C236.872 24.2607 238.141 24.4402 239.59 24.4402C240.557 24.4402 241.523 24.3803 242.429 24.2009C243.335 24.0214 244.18 23.8419 244.966 23.5427C245.751 23.3034 246.355 23.0043 246.898 22.7051V27.1325C246.174 27.6709 245.086 28.1496 243.637 28.5684C242.187 28.9872 240.617 29.1667 239.047 29.1667C236.812 29.1667 234.879 28.7479 233.248 27.9103C231.557 27.0726 230.289 25.8761 229.322 24.2607C228.417 22.6453 227.933 20.7308 227.933 18.3974C227.933 16.1838 228.356 14.2692 229.202 12.6538C230.047 11.0385 231.255 9.84188 232.765 8.94444C234.275 8.04701 236.087 7.6282 238.141 7.6282C241.04 7.6282 243.335 8.52564 244.905 10.2607C246.476 11.9957 247.321 14.3889 247.321 17.5V19.8333H232.826V16.6026H242.308C242.308 15.1667 241.885 14.0299 241.221 13.1923C240.496 12.3547 239.409 11.9359 237.839 11.9359C236.812 11.9359 235.966 12.1752 235.242 12.594C234.517 13.0128 234.034 13.6111 233.671 14.3889C233.188 15.1667 233.007 16.0641 233.007 17.141Z" fill="#EC0C31"/>
<path d="M264.716 27.9103C264.112 28.2693 263.387 28.5684 262.481 28.8077C261.575 29.047 260.488 29.2265 259.28 29.2265C258.072 29.2265 256.924 29.047 255.898 28.6282C254.871 28.2094 254.086 27.5513 253.482 26.594C252.878 25.6368 252.576 24.2607 252.576 22.5257V12.4744H249.435V11.218L256.562 4.15814H257.71V8.04703H264.716V12.4744H257.71V21.8675C257.71 22.8846 257.951 23.6624 258.495 24.0214C259.038 24.4402 259.763 24.6197 260.669 24.6197C261.454 24.6197 262.239 24.5 263.025 24.3205C263.749 24.141 264.353 23.9017 264.776 23.7222V27.9103H264.716Z" fill="#EC0C31"/>
<path d="M3.67527 17.3803L0.715759 21.6282V29.1667H14.6677L17.8688 18.2179C12.433 18.0983 7.29915 17.7991 3.67527 17.3803Z" fill="#EC0C31"/>
<path d="M17.8688 11.5171L14.6677 0.56839H2.6485H0.715759V8.10685L3.67527 12.3547C7.29915 11.9359 12.433 11.6368 17.8688 11.5171Z" fill="#EC0C31"/>
<path d="M28.2573 7.98719L28.9821 9.00429L30.794 11.6368C35.0823 11.8163 38.8873 12.2351 41.4241 12.8333L34.7199 0.56839H23.063L24.1502 2.18377L28.2573 7.98719Z" fill="#EC0C31"/>
<path d="M26.8681 23.7222L26.2641 24.5598L24.2106 27.5513L23.063 29.1667H34.5387L41.3637 16.8419C38.827 17.4402 35.0219 17.859 30.7336 18.0385L26.8681 23.7222Z" fill="#EC0C31"/>
</g>
<defs>
<clipPath id="clip0_3_53">
<rect width="264" height="35" fill="white" transform="translate(0.715759 0.329071)"/>
</clipPath>
</defs>
</svg>
