<svg width="54" height="54" viewBox="0 0 54 54" fill="none" xmlns="http://www.w3.org/2000/svg">
<path d="M3.2 18.5H50.8M3.2 35.5H50.8M1.5 27C1.5 30.3487 2.15958 33.6646 3.44107 36.7584C4.72257 39.8522 6.60088 42.6633 8.96878 45.0312C11.3367 47.3991 14.1478 49.2774 17.2416 50.5589C20.3354 51.8404 23.6513 52.5 27 52.5C30.3487 52.5 33.6646 51.8404 36.7584 50.5589C39.8522 49.2774 42.6633 47.3991 45.0312 45.0312C47.3991 42.6633 49.2774 39.8522 50.5589 36.7584C51.8404 33.6646 52.5 30.3487 52.5 27C52.5 20.237 49.8134 13.751 45.0312 8.96878C40.249 4.1866 33.763 1.5 27 1.5C20.237 1.5 13.751 4.1866 8.96878 8.96878C4.1866 13.751 1.5 20.237 1.5 27Z" stroke="#EC0C31" stroke-width="3" stroke-linecap="round" stroke-linejoin="round"/>
<path d="M25.5833 1.5C20.8101 9.1489 18.2796 17.984 18.2796 27C18.2796 36.016 20.8101 44.8511 25.5833 52.5M28.4167 1.5C33.1899 9.1489 35.7204 17.984 35.7204 27C35.7204 36.016 33.1899 44.8511 28.4167 52.5" stroke="#EC0C31" stroke-width="3" stroke-linecap="round" stroke-linejoin="round"/>
</svg>
