<svg width="72" height="71" viewBox="0 0 72 71" fill="none" xmlns="http://www.w3.org/2000/svg">
<path d="M44.4589 14.7917V35.5H26.7089V14.7917H44.4589ZM44.4589 8.875H26.7089C25.1397 8.875 23.6347 9.49836 22.5251 10.608C21.4155 11.7175 20.7922 13.2225 20.7922 14.7917V41.4167H50.3755V14.7917C50.3755 13.2225 49.7522 11.7175 48.6426 10.608C47.533 9.49836 46.0281 8.875 44.4589 8.875ZM65.1672 29.5833H56.2922V38.4583H65.1672V29.5833ZM14.8755 29.5833H6.00052V38.4583H14.8755V29.5833ZM59.2505 44.375H11.9172V62.125H17.8339V50.2917H53.3339V62.125H59.2505V44.375Z" fill="#EC0C31"/>
</svg>
