<svg width="109" height="35" viewBox="0 0 109 35" fill="none" xmlns="http://www.w3.org/2000/svg">
<path d="M54.4575 34.2914C36.9728 34.2914 19.4882 34.2914 2.0035 34.2914C0.379717 34.2914 0.20574 33.8562 0.843655 32.3472C1.9745 29.6776 3.62728 27.4142 5.80199 25.528C9.16554 22.5972 13.051 20.8561 17.5454 20.682C19.0532 20.6239 20.764 21.0882 21.9818 20.5079C23.2286 19.8985 23.1417 17.8962 23.8956 16.6194C25.7513 13.4855 28.071 10.9319 31.2606 9.07474C35.697 6.49213 40.4234 5.88275 45.3237 6.78231C47.5274 7.18857 49.7021 7.97205 51.5289 9.36492C52.2828 9.94528 52.7177 9.91626 53.3557 9.04572C56.9512 3.90952 61.8515 1.03674 68.1147 0.311286C74.2619 -0.414166 79.7132 1.23986 84.2366 5.30239C88.354 9.0167 91.0796 13.6016 91.1086 19.4052C91.1086 20.1887 91.2246 20.5659 92.1525 20.711C96.6759 21.3494 100.735 23.1775 104.099 26.3115C106.158 28.2267 107.491 30.6932 108.651 33.2468C108.912 33.8271 108.622 34.2044 108.042 34.2914C107.607 34.3495 107.172 34.3204 106.738 34.3204C89.3399 34.2914 71.8842 34.2914 54.4575 34.2914Z" fill="#D5EBFE"/>
</svg>
