<svg width="135" height="44" viewBox="0 0 135 44" fill="none" xmlns="http://www.w3.org/2000/svg">
<path d="M67.3007 43.0784C45.8294 43.0784 24.3582 43.0784 2.9227 43.0784C2.38591 43.0784 1.84913 43.1143 1.31235 43.0425C0.489286 42.9349 0.167218 42.4684 0.525073 41.6431C1.84913 38.6289 3.63841 36.0094 5.89289 33.5693C9.75772 29.4068 14.553 27.2897 20.0281 26.4644C21.5311 26.2491 22.1037 25.6032 22.211 23.9166C22.7836 16.1658 26.3622 10.0297 32.6604 5.47253C40.9984 -0.591778 52.0919 -0.771197 60.6804 4.14484C63.6864 5.86725 66.585 7.98438 68.3743 11.178C69.1615 12.5775 70.2709 12.7569 71.4876 11.9316C76.0323 8.77381 81.2212 8.12791 86.4817 8.63028C90.9191 9.06088 95.106 10.4962 98.6488 13.5822C101.225 15.8429 103.623 18.1394 105.162 21.2613C105.484 21.9072 105.913 22.4813 106.164 23.1631C107.309 26.1414 107.309 26.2491 110.565 26.1414C119.87 25.7826 126.776 29.9451 131.965 37.4088C132.895 38.7365 133.325 40.3154 133.933 41.7866C134.363 42.8272 133.862 43.0425 132.967 43.0425C132.18 43.0067 131.428 43.0425 130.641 43.0425C109.492 43.0784 88.4141 43.0784 67.3007 43.0784Z" fill="#D5EBFE"/>
</svg>
