<svg width="94" height="30" viewBox="0 0 94 30" fill="none" xmlns="http://www.w3.org/2000/svg">
<path d="M47.4565 29.618C32.5397 29.618 17.6229 29.618 2.7309 29.618C2.35798 29.618 1.98506 29.6429 1.61214 29.5931C1.04033 29.5185 0.816576 29.195 1.06519 28.6228C1.98506 26.5329 3.22813 24.7166 4.79439 23.0248C7.47942 20.1387 10.8108 18.6707 14.6146 18.0985C15.6588 17.9492 16.0566 17.5014 16.1312 16.332C16.529 10.9579 19.0151 6.70337 23.3907 3.54359C29.1834 -0.661153 36.8904 -0.785555 42.8571 2.62303C44.9455 3.81727 46.9593 5.2852 48.2023 7.49954C48.7493 8.46986 49.52 8.59426 50.3653 8.02202C53.5227 5.83257 57.1276 5.38472 60.7822 5.73305C63.865 6.03161 66.7738 7.02681 69.2351 9.16651C71.0251 10.734 72.6908 12.3263 73.7598 14.4909C73.9836 14.9387 74.2819 15.3368 74.4559 15.8095C75.2515 17.8746 75.2515 17.9492 77.5139 17.8746C83.9779 17.6258 88.7761 20.5119 92.381 25.6869C93.0274 26.6075 93.3257 27.7022 93.7484 28.7223C94.0467 29.4438 93.6987 29.5931 93.0771 29.5931C92.5302 29.5682 92.0081 29.5931 91.4611 29.5931C76.7681 29.618 62.1247 29.618 47.4565 29.618Z" fill="#D5EBFE"/>
</svg>
